<?xml version="1.0" encoding="UTF-8"?>
<!-- Generator: visioncortex VTracer 0.6.2 -->
<svg version="1.1" xmlns="http://www.w3.org/2000/svg" width="1280" height="959">
<path d="M0 0 C422.4 0 844.8 0 1280 0 C1280 316.47 1280 632.94 1280 959 C857.6 959 435.2 959 0 959 C0 642.53 0 326.06 0 0 Z " fill="#C80D1B" transform="translate(0,0)"/>
<path d="M0 0 C3.62120847 0.00647582 7.24241699 0.01292623 10.86362551 0.01937746 C35.90618173 0.06400331 60.9487361 0.1095909 85.99128871 0.15620276 C89.11091659 0.16200825 92.23054449 0.16780255 95.3501724 0.17359563 C158.92759759 0.29206527 222.50496968 0.43171538 286.08236279 0.56734159 C286.08236279 91.97734159 286.08236279 183.38734159 286.08236279 277.56734159 C-136.31763721 277.56734159 -558.71763721 277.56734159 -993.91763721 277.56734159 C-993.91763721 186.15734159 -993.91763721 94.74734159 -993.91763721 0.56734159 C-854.38720279 0.2618691 -854.38720279 0.2618691 -805.89427675 0.1697664 C-802.6875826 0.16367369 -799.48088845 0.15757477 -796.27419432 0.15146977 C-771.71986915 0.10475225 -747.16554187 0.05922862 -722.61121295 0.01452919 C-719.07361853 0.00808898 -715.53602413 0.00163292 -711.99842976 -0.00483838 C-620.76953332 -0.17169861 -529.54058407 -0.3178137 0 0 Z " fill="#112252" transform="translate(993.9176372140646,681.4326584115624)"/>
<path d="M0 0 C422.4 0 844.8 0 1280 0 C1280 87.12 1280 174.24 1280 264 C1260.54780518 264.02505615 1241.09561035 264.0501123 1221.05395508 264.07592773 C1208.06687915 264.09280194 1195.07980326 264.10969285 1182.09272766 264.1268158 C1181.26776081 264.12790299 1180.44279396 264.12899019 1179.59282812 264.13011033 C1151.83081981 264.16671474 1124.06881353 264.2046797 1096.30680847 264.2436676 C1094.94815204 264.24557512 1094.94815204 264.24557512 1093.562048 264.24752118 C1073.87874064 264.27516344 1054.19543359 264.30302645 1034.51212685 264.33111694 C1024.85989127 264.34489052 1015.20765561 264.35861531 1005.55541992 264.37231445 C1004.11462484 264.37436058 1004.11462484 264.37436058 1002.64472278 264.37644804 C971.49301147 264.42066484 940.34129692 264.46165757 909.18957908 264.50098413 C877.18580149 264.54140333 845.18202992 264.58506366 813.1782624 264.63282111 C808.66131385 264.63955999 804.14436525 264.64626168 799.62741661 264.65294075 C798.73838797 264.65425648 797.84935932 264.65557221 796.93339042 264.6569278 C782.60379246 264.67803933 768.27419221 264.69571889 753.94458817 264.71212531 C739.54982956 264.72867919 725.15507955 264.74882423 710.76033113 264.77266841 C702.20084558 264.78673673 693.64136675 264.79801818 685.08187274 264.80536438 C679.36997038 264.81053746 673.65808086 264.81928723 667.94618815 264.83098774 C664.6879099 264.8375585 661.42965363 264.84199093 658.17136834 264.84316199 C654.66662258 264.84466337 651.16194139 264.85220774 647.65720844 264.8613348 C646.12951987 264.8598008 646.12951987 264.8598008 644.5709689 264.85823581 C643.17158331 264.86375687 643.17158331 264.86375687 641.7439273 264.86938947 C640.54155066 264.87102727 640.54155066 264.87102727 639.31488358 264.87269815 C636.79981782 265.01100857 634.46769069 265.50638261 632 266 C630.44392297 266.08307475 628.88489557 266.12056307 627.32660502 266.11778647 C626.40944888 266.11860034 625.49229275 266.11941422 624.547344 266.12025276 C623.54653275 266.1160214 622.5457215 266.11179004 621.51458263 266.10743046 C620.44176124 266.10689593 619.36893985 266.1063614 618.26360872 266.10581067 C614.64423706 266.10276608 611.02492142 266.09249093 607.40556335 266.08229065 C604.79437482 266.07859827 602.18318563 266.07534864 599.57199603 266.07250541 C593.88222558 266.06559379 588.19247168 266.05493143 582.50271225 266.04183006 C574.04222084 266.02236565 565.58172701 266.00866994 557.1212228 265.99616829 C542.88998231 265.97497552 528.65875395 265.94908642 514.42752647 265.92053413 C500.3338829 265.89227318 486.24023799 265.86609138 472.14658546 265.84269524 C471.270758 265.84124015 470.39493053 265.83978506 469.49256284 265.83828588 C465.04479929 265.83090728 460.59703569 265.82356591 456.14927206 265.81623887 C424.63393082 265.76425498 393.11859954 265.70759602 361.60327148 265.64819336 C330.98380922 265.59048998 300.36434431 265.53490071 269.74487305 265.48217773 C268.32949449 265.47973936 268.32949449 265.47973936 266.88552242 265.47725173 C257.40977184 265.46092952 247.93402118 265.44465033 238.45827047 265.42840267 C219.15453767 265.39530241 199.85080537 265.36191496 180.54707336 265.32835388 C179.21569954 265.32603971 179.21569954 265.32603971 177.85742927 265.32367879 C150.6483334 265.27636936 123.43923988 265.22784248 96.23014832 265.17811584 C95.45755036 265.17670434 94.6849524 265.17529283 93.88894238 265.17383855 C62.59262686 265.11664294 31.29631373 265.05815958 0 265 C0 177.55 0 90.1 0 0 Z " fill="#112151" transform="translate(0,0)"/>
<path d="M0 0 C158.7060109 -0.08075728 158.7060109 -0.08075728 219.40438533 -0.09632993 C235.2773377 -0.10041254 251.15029004 -0.10458849 267.02324231 -0.10905199 C268.94331116 -0.10959167 270.86338001 -0.11012841 272.78344886 -0.11066218 C303.41870909 -0.119203 334.05396197 -0.13421587 364.68921775 -0.15259444 C396.1626065 -0.17144162 427.63599117 -0.1837667 459.10938547 -0.18782998 C463.54999605 -0.18840633 467.99060662 -0.1890576 472.43121719 -0.18975449 C473.30523345 -0.18988933 474.17924971 -0.19002418 475.07975131 -0.19016311 C489.17563248 -0.19253086 503.2715011 -0.20181859 517.36737715 -0.21366407 C531.5223558 -0.22541262 545.67732194 -0.22994249 559.8323053 -0.22700275 C568.25246772 -0.22547617 576.67258454 -0.22958523 585.09273877 -0.24159509 C591.36429101 -0.24993295 597.63579871 -0.24794721 603.90735258 -0.24179779 C606.45649772 -0.24094647 609.00564661 -0.24353739 611.55478428 -0.24976636 C614.99784291 -0.25769604 618.44067166 -0.2535258 621.88372612 -0.24609566 C622.89241841 -0.25134968 623.9011107 -0.25660371 624.94036943 -0.26201695 C625.85078368 -0.25752237 626.76119794 -0.25302778 627.69920051 -0.24839699 C628.88168962 -0.24886493 628.88168962 -0.24886493 630.0880674 -0.24934233 C632 0 632 0 634 2 C634.24839699 4.90938914 634.24839699 4.90938914 634.24609566 8.72730446 C634.24840315 9.43054416 634.25071064 10.13378386 634.25308805 10.85833385 C634.25842182 13.23748683 634.24937821 15.61637446 634.24050903 17.99551392 C634.2413832 19.70488041 634.24313578 21.41424665 634.24569702 23.12361145 C634.25020361 27.84881877 634.24212816 32.57393624 634.23214546 37.29913214 C634.22344564 42.46235743 634.22633246 47.62557821 634.2277813 52.78880882 C634.228847 62.82296453 634.21958924 72.8570846 634.20677864 82.89123114 C634.19241024 94.49153722 634.19079088 106.09182172 634.18920898 117.69213867 C634.17869714 148.33643145 634.15077508 178.98071626 634.125 209.625 C634.08375 278.05875 634.0425 346.4925 634 417 C424.78 417 215.56 417 0 417 C0 279.39 0 141.78 0 0 Z " fill="#FCFDFF" transform="translate(0,265)"/>
<path d="M0 0 C1.39601465 -0.00674188 1.39601465 -0.00674188 2.82023162 -0.01361996 C3.84131768 -0.00836593 4.86240374 -0.0031119 5.91443181 0.00230134 C7.00467147 -0.00000635 8.09491112 -0.00231404 9.21818835 -0.00469166 C12.90287103 -0.0100216 16.58738193 -0.00098268 20.27205586 0.00788796 C22.92775926 0.00701651 25.58345131 0.00535125 28.23915243 0.00270963 C34.02927789 -0.00144247 39.8193623 0.00185755 45.609483 0.00998604 C54.21921898 0.02203936 62.828929 0.02265921 71.43867188 0.02090207 C85.92051237 0.01827203 100.40233463 0.02496554 114.88416982 0.03693688 C129.22705098 0.04876302 143.56992456 0.05646717 157.91281056 0.05864251 C158.80395658 0.05877999 159.69510261 0.05891747 160.61325305 0.05905911 C165.13876609 0.05973576 169.66427913 0.06033853 174.18979219 0.06091286 C206.26028906 0.06511587 238.33077601 0.07859667 270.40126729 0.09751809 C301.56109748 0.11588102 332.72092496 0.13005115 363.88075948 0.13853371 C364.84091132 0.13879676 365.80106317 0.13905982 366.79031053 0.13933084 C376.43237818 0.14196784 386.07444585 0.14451947 395.71651354 0.14700856 C415.35925468 0.15208125 435.00199565 0.15772376 454.64473653 0.16371071 C455.54791675 0.16398529 456.45109696 0.16425987 457.38164628 0.16454277 C517.71452538 0.18295017 578.04739897 0.21464128 638.3802712 0.24839699 C638.3802712 1.23839699 638.3802712 2.22839699 638.3802712 3.24839699 C425.8602712 3.24839699 213.3402712 3.24839699 -5.6197288 3.24839699 C-5.2897288 139.53839699 -4.9597288 275.82839699 -4.6197288 416.24839699 C-2.3097288 416.57839699 0.0002712 416.90839699 2.3802712 417.24839699 C2.3802712 417.57839699 2.3802712 417.90839699 2.3802712 418.24839699 C0.90120228 418.27528915 -0.57800363 418.29474321 -2.0572288 418.31089699 C-2.88093974 418.32249856 -3.70465068 418.33410012 -4.55332255 418.34605324 C-6.6197288 418.24839699 -6.6197288 418.24839699 -7.6197288 417.24839699 C-7.72287296 415.04891005 -7.75375005 412.84603953 -7.758394 410.64414036 C-7.76123622 409.94231144 -7.76407844 409.24048252 -7.76700678 408.51738605 C-7.77541212 406.13595839 -7.77662653 403.754579 -7.77794719 401.37313759 C-7.78250858 399.6604812 -7.78750796 397.94782592 -7.79291075 396.23517197 C-7.80654952 391.50578064 -7.81392673 386.77639654 -7.82033741 382.04699063 C-7.82831628 376.95560911 -7.84202264 371.86424275 -7.85504985 366.77287209 C-7.87684841 357.94403918 -7.89498048 349.11520477 -7.91065478 340.28635895 C-7.93332273 327.52117234 -7.96146975 314.7560025 -7.99097406 301.99083007 C-8.03868779 281.28250365 -8.08194168 260.57417038 -8.12241435 239.86582863 C-8.16175007 219.74407842 -8.20317166 199.6223343 -8.24741435 179.50059426 C-8.25013862 178.26125382 -8.25286289 177.02191338 -8.25566972 175.74501716 C-8.26934888 169.52789815 -8.28306922 163.31077923 -8.29681003 157.09366035 C-8.41083417 105.47858525 -8.51763035 53.86349697 -8.6197288 2.24839699 C-5.61154517 0.51781828 -3.45813891 -0.00134558 0 0 Z " fill="#94152D" transform="translate(641.6197288036346,263.7516030073166)"/>
</svg>
